<?xml version="1.0" encoding="UTF-8"?><svg id="a" xmlns="http://www.w3.org/2000/svg" viewBox="0 0 453 512"><path d="M20.29,506.39c-6.84,0-12.38-5.54-12.38-12.38V224.21C7.9,103.67,105.97,5.61,226.51,5.61c35.06,0,69.92,8.5,100.82,24.59,3.82,1.99,7.28,3.92,10.57,5.89,4.36,2.57,8.87,5.46,13.3,8.55,10.61,7.38,20.67,15.79,29.86,24.99,41.29,41.29,64.02,96.18,64.02,154.58v269.8c0,6.84-5.54,12.38-12.38,12.38H20.29" style="fill:#fff;"/><path d="M432.23,225.39v269.8H19.8V225.39c0-81.84,47.65-152.53,116.73-185.84,27.07-13.06,57.43-20.39,89.49-20.39,34.3,0,66.65,8.38,95.11,23.19,3.36,1.75,6.69,3.59,9.93,5.53,2.35,1.38,4.66,2.83,6.95,4.31,1.9,1.22,3.78,2.48,5.63,3.78,5.49,3.82,10.79,7.9,15.87,12.24,4.27,3.61,8.38,7.41,12.32,11.35,1.96,1.96,3.86,3.94,5.74,5.98.23.23.45.47.68.72,1.16,1.28,2.31,2.56,3.43,3.88,31.51,36.19,50.56,83.49,50.56,135.24" style="fill:#fb983c;"/><path d="M226.03,19.17c-32.07,0-62.42,7.33-89.49,20.39.02.52.06,1.05.1,1.59.8,9.33,2.99,18.78,8.11,26.52,8.79,13.29,24.41,19.38,38.61,26.04,6.67,3.12,13.76,7.16,16.22,14.28,2.72,7.86-1.57,16.82-7.97,21.96-6.38,5.14-14.44,7.35-22.2,9.66-14.24,4.25-27.13,11.2-29.53,27.75-.31,2.1-.39,4.04-.25,5.82.12,1.88.47,3.57,1.01,5.12l.06.14c.52,1.51,1.24,2.89,2.1,4.13,1.05,1.49,2.31,2.81,3.78,3.96.62.14,1.24.27,1.88.39.87.17,1.75.33,2.64.5l.25.04c.54.1,1.07.21,1.61.29.37.06.74.12,1.13.21.1,0,.19.02.29.04.39.06.78.12,1.2.19.23.04.47.08.7.12.29.04.58.08.87.14.23.02.45.06.68.1.14.02.29.04.43.06.14.02.29.04.45.08.29.04.6.08.91.12l.19.02.04.02h.04c.56.08,1.13.17,1.71.25.1,0,.21.02.33.04,1.09.14,2.21.31,3.34.45.68.08,1.36.19,2.06.27,1.07.12,2.17.27,3.28.39.91.1,1.84.23,2.79.33.7.08,1.4.14,2.13.23,1.98.21,4.02.41,6.11.62,2.08.21,4.21.39,6.38.58,1.07.1,2.17.19,3.28.27.99.08,2,.16,3.01.25,3.57.27,7.26.52,11.04.74.52.02,1.03.06,1.55.08.14.02.29.02.43.02v.02c.54.02,1.09.04,1.65.08,3.61.21,7.28.37,11.04.54,3.61.14,7.26.27,10.98.37,1.24.04,2.48.08,3.71.12,1.67.04,3.34.08,5.06.12,4.15.08,8.25.14,12.28.16h1.63c.14.01.29.02.43.02s.29,0,.43-.02c.58.02,1.16.02,1.73.02,3.59,0,7.1,0,10.57-.04,2.33-.02,4.64-.06,6.93-.1,1.65-.02,3.28-.06,4.89-.1h.06c2.19-.06,4.35-.12,6.5-.21.39-.02.81-.02,1.2-.04.87-.04,1.71-.06,2.56-.1,1.24-.04,2.46-.1,3.67-.14l1.24-.06c1.94-.1,3.84-.21,5.72-.31.47-.02.95-.06,1.42-.08h.21c.1-.02.19-.02.29-.02.54-.04,1.07-.08,1.61-.1.7-.04,1.38-.1,2.06-.14.87-.06,1.71-.12,2.58-.19.66-.04,1.3-.1,1.96-.14.23-.02.45-.04.66-.06,1.07-.08,2.15-.17,3.2-.27.21-.02.39-.04.58-.04.39-.04.78-.08,1.18-.12.1,0,.21-.02.31-.02.17-.02.31-.04.45-.04.41-.04.83-.08,1.22-.12,1.24-.12,2.46-.25,3.65-.39.45-.04.89-.08,1.3-.14.6-.06,1.18-.12,1.75-.21,1.92-.21,3.76-.45,5.49-.72,1.63-.25,3.18-.5,4.64-.74.62-.76,1.18-1.59,1.69-2.43,1.01-1.65,1.82-3.45,2.33-5.28.04-.12.06-.27.1-.39.45-1.71.66-3.49.58-5.28-.02-.76-.1-1.53-.27-2.29-1.05-5.51-4.87-10.03-9.1-13.58-12.99-10.91-30.17-14.71-47.06-14.71-2.4,0-4.8.08-7.17.22-4.02.24-8.09.65-12.12.65-3.32,0-6.61-.28-9.82-1.16-7.12-1.94-13.87-7.8-14.28-15.39-.5-9.04,7.76-15.95,15.81-19.54,14.53-6.48,30.73-7.47,46.02-11.7,15.29-4.23,30.97-13.19,36.23-28.6,2.02-5.96,2.19-12.3.89-18.43h0c-2.29-1.49-4.6-2.93-6.95-4.31-3.24-1.94-6.56-3.78-9.93-5.53-28.46-14.82-60.81-23.19-95.11-23.19" style="fill:#fcb97b;"/><path d="M411.29,421.37v41.36l-310.05,1.48-64.42-41.81s0-.28-.02-.79c-.02-.32-.02-.71-.04-1.2v-.02c-.04-1.22-.08-2.92-.16-4.96,0-.38-.02-.77-.02-1.19-.04-1.52-.1-3.2-.16-4.98,0-.4-.02-.79-.04-1.19-.04-1.62-.1-3.3-.14-5-.02-.39-.04-.79-.04-1.18-.06-1.68-.1-3.34-.16-4.98-.02-.39-.02-.79-.04-1.18-.06-1.72-.1-3.4-.16-4.98,0-.41-.02-.83-.04-1.22-.04-1.84-.1-3.52-.14-4.96-.02-.41-.04-.83-.06-1.2-.06-2.23-.12-3.71-.14-4.01l65.89,42.01h309.94" style="fill:#fff;"/><path d="M411.29,425.1v.99H101.22l-.12-.08-65.43-41.44c-.02-.41-.04-.83-.06-1.2l65.73,41.63.18.1h309.78" style="fill:#a8d3c5;"/><path d="M411.29,431.14v.99H101.22l-.12-.08-65.25-41.3c0-.41-.02-.83-.04-1.22l65.53,41.49.18.12h309.78" style="fill:#a8d3c5;"/><path d="M411.29,431.14v.99H101.22l-.12-.08-65.25-41.3c0-.41-.02-.83-.04-1.22l65.53,41.49.18.12h309.78" style="fill:#a8d3c5;"/><path d="M411.29,437.2v.99H101.22l-.12-.08-65.06-41.2c-.02-.39-.02-.79-.04-1.18l65.31,41.36.2.12h309.78" style="fill:#a8d3c5;"/><path d="M411.29,443.25v.99H101.22l-.12-.08-64.86-41.08c-.02-.39-.04-.79-.04-1.18l65.1,41.22.22.14h309.78" style="fill:#a8d3c5;"/><path d="M411.29,449.29v.99H101.22l-.12-.06-64.68-40.96c0-.4-.02-.79-.04-1.19l64.9,41.06.24.16h309.78" style="fill:#a8d3c5;"/><path d="M411.29,455.35v.99H101.22l-.12-.08-64.5-40.84c0-.38-.02-.77-.02-1.19l64.68,40.96.26.16h309.78" style="fill:#a8d3c5;"/><path d="M411.29,461.4v.99H101.22l-.12-.08-64.31-40.7c-.02-.32-.02-.71-.04-1.2l64.48,40.82.28.18h309.78" style="fill:#a8d3c5;"/><path d="M35.85,390.75c.06,1.58.1,3.26.16,4.98h0l65.31,41.36.02-4.96h-.12l-.12-.08-65.25-41.3M35.67,384.57c.04,1.44.1,3.12.14,4.96h0l65.53,41.49v-4.94h-.12l-.12-.08-65.43-41.44M35.47,379.36c.02.3.08,1.78.14,4.01h0l65.73,41.63.02-3.63-65.88-42h0" style="fill:#fcebe7;"/><path d="M35.61,383.37c.02.38.04.79.06,1.2h0l65.43,41.44.12.08h.12v-1.09l-65.73-41.63" style="fill:#b7c8ba;"/><path d="M35.81,389.53c.02.4.04.81.04,1.22h0l65.25,41.3.12.08h.12v-1.11l-65.53-41.49" style="fill:#b7c8ba;"/><path d="M36.6,415.42c.08,2.03.12,3.73.16,4.96v.02h0l64.48,40.82.02-4.88h-.04l-.12-.08-64.5-40.84M36.42,409.26c.06,1.78.12,3.46.16,4.98h0l64.68,40.96.02-4.92h-.06l-.12-.06-64.68-40.96M36.24,403.08c.04,1.7.1,3.38.14,5h0l64.9,41.06.02-4.9h-.08l-.12-.08-64.86-41.08M36.04,396.91c.06,1.64.1,3.3.16,4.98h0l65.1,41.22.02-4.92h-.1l-.12-.08-65.06-41.2" style="fill:#fcebe7;"/><path d="M36,395.73c.02.39.02.79.04,1.18h0l65.06,41.2.12.08h.1v-1.11l-65.31-41.36" style="fill:#b7c8ba;"/><path d="M36.2,401.89c0,.39.02.79.04,1.18h0l64.86,41.08.12.08h.08v-1.13l-65.1-41.22" style="fill:#b7c8ba;"/><path d="M36.38,408.07c.02.4.04.79.04,1.19h0l64.68,40.96.12.06h.06v-1.15l-64.9-41.06" style="fill:#b7c8ba;"/><path d="M36.58,414.24c0,.41.02.81.02,1.19h0l64.5,40.84.12.08h.04v-1.15l-64.68-40.96" style="fill:#b7c8ba;"/><polyline points="36.81 422.39 98.67 462.72 101.24 464.46 101.24 464.2 36.81 422.39" style="fill:#f99a4e;"/><path d="M36.79,421.6c.02.51.02.79.02.79h0l64.42,41.81v-1.82h-.02l-.12-.08-64.31-40.7" style="fill:#fcebe7;"/><path d="M36.75,420.4c.02.49.02.89.04,1.2h0l64.31,40.7.12.08h.02v-1.17l-64.48-40.82" style="fill:#b7c8ba;"/><polyline points="35.47 379.36 329.29 379.36 411.31 421.37 101.36 421.37 35.47 379.36" style="fill:#a8d3c5;"/><path d="M36.82,422.4l-1.35-43.04s8.91,10.26,8.4,23.7c-.5,13.45-7.06,19.34-7.06,19.34Z" style="fill:#a03e30;"/><path d="M418.88,374.5l-.04,6.56v.99l-.02,6.08v.99l-.04,6.06v.99l-.02,6.06v.99l-.04,6.08v.99l-.02,4.54H107.76l-61.86-40.33v-.04c0-.28-.06-1.92-.14-4.4,0-.2-.02-.4-.02-.59-.04-1.86-.1-4.13-.18-6.6,0-.2-.02-.4-.02-.59-.08-2.09-.14-4.33-.22-6.62,0-.2-.02-.39-.02-.59-.06-2.21-.12-4.44-.2-6.6,0-.2-.02-.4-.02-.59-.08-2.33-.14-4.58-.2-6.62,0-.2-.02-.4-.02-.59-.08-2.71-.16-5.02-.22-6.66-.02-.32-.02-.59-.02-.85-.02-.26-.02-.49-.04-.69h1.54l64.31,41,302.51,1.01,5.92.02" style="fill:#fff;"/><polyline points="418.84 381.06 418.84 382.04 109.3 382.04 109.18 381.96 50.22 344.64 44.89 341.26 44.61 341.08 45.13 340.25 49.61 343.08 109.43 380.98 109.57 381.06 418.84 381.06" style="fill:#a8d3c5;"/><polyline points="418.82 388.13 418.82 389.11 109.3 389.11 109.18 389.03 52.26 352.99 45.11 348.47 44.83 348.29 45.09 347.88 45.35 347.46 52.1 351.73 109.43 388.05 109.57 388.13 418.82 388.13" style="fill:#a8d3c5;"/><polyline points="418.82 388.13 418.82 389.11 109.3 389.11 109.18 389.03 52.26 352.99 45.11 348.47 44.83 348.29 45.09 347.88 45.35 347.46 52.1 351.73 109.43 388.05 109.57 388.13 418.82 388.13" style="fill:#a8d3c5;"/><polyline points="418.78 395.18 418.78 396.16 109.3 396.16 109.18 396.09 52.2 360 45.33 355.66 45.05 355.48 45.31 355.06 45.56 354.65 52.32 358.92 52.53 359.05 109.43 395.1 109.57 395.18 418.78 395.18" style="fill:#a8d3c5;"/><polyline points="418.76 402.23 418.76 403.21 109.3 403.21 109.18 403.14 50.72 366.12 45.56 362.87 45.29 362.69 45.8 361.86 51.05 365.2 51.15 365.26 109.43 402.15 109.57 402.23 418.76 402.23" style="fill:#a8d3c5;"/><polyline points="418.72 409.3 418.72 410.29 109.3 410.29 109.18 410.21 48.09 371.52 45.76 370.05 45.48 369.88 45.74 369.46 46 369.05 48.58 370.69 48.84 370.84 109.43 409.22 109.57 409.3 418.72 409.3" style="fill:#a8d3c5;"/><path d="M44.89,341.26c.03,1,.06,2.05.09,3.14-.03-1.09-.06-2.14-.09-3.13h0" style="fill:#f99a4e;"/><path d="M44.89,341.26h0c.03,1,.06,2.05.09,3.13.03,1.13.07,2.29.11,3.48h0l.26-.41,6.75,4.27,57.33,36.32v-6h-.14l-.12-.08-58.95-37.33-5.33-3.38M44.63,333.16c0,.26,0,.53.02.85.06,1.64.14,3.95.22,6.66,0,0,0,0,0,0l.26-.41,4.48,2.82,59.82,37.9v-6.5l-64.8-41.32" style="fill:#fcebe7;"/><path d="M45.13,340.25l-.26.41c0,.19.01.39.02.59h0s5.33,3.38,5.33,3.38l58.95,37.33.12.08h.14v-1.07l-59.82-37.9-4.48-2.82" style="fill:#b7c8ba;"/><path d="M45.11,348.49c.04,1.27.08,2.56.12,3.85-.04-1.3-.08-2.59-.12-3.85" style="fill:#f99a4e;"/><path d="M45.11,348.47s0,.01,0,.02c.05,1.26.09,2.56.12,3.85.03.91.05,1.81.07,2.72h0l.26-.41,6.75,4.27.22.14,56.9,36.04v-5.98h-.14l-.12-.08-56.92-36.04-7.15-4.52" style="fill:#fcebe7;"/><path d="M45.32,355.66c.04,1.25.08,2.49.12,3.69-.04-1.2-.08-2.44-.12-3.69h0" style="fill:#f99a4e;"/><path d="M45.33,355.66h0c.04,1.25.08,2.49.12,3.69.03,1,.07,1.98.1,2.92l.26-.41,5.25,3.34.1.06,58.28,36.89v-5.98h-.14l-.12-.08-56.98-36.08-6.87-4.34" style="fill:#fcebe7;"/><path d="M45.56,362.86c.06,1.89.11,3.67.15,5.23-.04-1.56-.09-3.34-.15-5.23h0" style="fill:#f99a4e;"/><path d="M45.56,362.87h0c.06,1.89.11,3.66.15,5.23.01.48.02.94.03,1.37h0l.26-.41,2.59,1.64.26.16,60.59,38.37v-6h-.14l-.12-.08-58.46-37.01-5.15-3.26" style="fill:#fcebe7;"/><path d="M45.35,347.46l-.26.41c0,.2.01.39.02.59l7.15,4.52,56.92,36.04.12.08h.14v-1.07l-57.33-36.32-6.75-4.27" style="fill:#b7c8ba;"/><path d="M45.56,354.65l-.26.41c0,.2.01.39.02.59h0s6.87,4.35,6.87,4.35l56.98,36.08.12.08h.14v-1.07l-56.9-36.04-.22-.14-6.75-4.27" style="fill:#b7c8ba;"/><path d="M45.8,361.86l-.26.41s0,0,0,0c0,.2.01.4.02.59h0s5.15,3.26,5.15,3.26l58.46,37.01.12.08h.14v-1.07l-58.28-36.89-.1-.06-5.25-3.34" style="fill:#b7c8ba;"/><path d="M45.76,370.06c.09,2.49.14,4.13.14,4.4v.04l61.86,40.33h1.68v-4.54h-.14l-.12-.08-61.09-38.69-2.33-1.46" style="fill:#fcebe7;"/><path d="M46,369.05l-.26.41c0,.2.01.4.02.59l2.33,1.46,61.09,38.69.12.08h.14v-1.07l-60.59-38.37-.26-.16-2.59-1.64" style="fill:#b7c8ba;"/><path d="M52.46,356.17c0,1.15-.06,2.25-.18,3.3-.26,2.31-.75,4.38-1.38,6.2-.73,2.17-1.66,3.97-2.55,5.43v.02c-.91,1.48-1.8,2.61-2.45,3.34,0-.3-.06-2.17-.16-5-.04-1.99-.12-4.48-.2-7.19-.08-2.27-.16-4.72-.24-7.21-.06-2.41-.14-4.84-.22-7.19-.08-2.57-.16-5.02-.22-7.21-.08-2.71-.16-5.02-.22-6.66,1.32,1.9,3.54,5.43,5.27,9.86,1.01,2.59,1.86,5.47,2.27,8.51.16,1.24.26,2.51.26,3.79Z" style="fill:#a8d3c5;"/><path d="M419.37,374.48H109.43l-64.8-41.32c-.02-.26-.02-.49-.04-.69h292.75l82.02,42.01" style="fill:#4d7b72;"/><path d="M390.87,349.64c-.27,13.2-68.65,22.51-152.73,20.8-22.91-.46-44.59-1.69-64.03-3.52-51.99-4.84-87.94-13.85-87.75-23.46.27-13.19,68.65-22.49,152.74-20.79,63.03,1.28,116.99,8.39,139.94,17.42,7.68,3.02,11.88,6.24,11.82,9.54" style="fill:#a03e30;"/><path d="M390.93,346.99c-.27,13.2-68.65,22.51-152.73,20.8-22.91-.46-44.59-1.69-64.03-3.52-51.99-4.84-87.94-13.85-87.75-23.46.27-13.19,68.65-22.49,152.74-20.79,63.03,1.28,116.99,8.39,139.94,17.42,7.68,3.02,11.88,6.24,11.82,9.54" style="fill:#ffead9;"/><path d="M257.39,350.7c-6.09,0-12.39-.06-18.84-.19-51.79-1.05-93.69-6.08-93.58-11.22.09-4.51,32.35-7.62,75.12-7.62,6.09,0,12.39.06,18.84.19,51.79,1.05,93.69,6.08,93.58,11.22-.09,4.51-32.35,7.62-75.12,7.62M219.44,319.83c-74.8,0-132.77,8.85-133.02,20.99,0,.03,0,.06,0,.08.02,9.57,35.91,18.55,87.75,23.37,19.44,1.82,41.13,3.05,64.03,3.52,6.68.14,13.26.2,19.72.2,74.8,0,132.76-8.85,133.01-21,0-.03,0-.05,0-.08,0-3.27-4.2-6.47-11.82-9.46-22.95-9.03-76.91-16.14-139.94-17.42-6.69-.14-13.27-.2-19.73-.2" style="fill:#fcdac9;"/><path d="M220.08,331.66c-42.77,0-75.03,3.11-75.12,7.62-.1,5.15,41.79,10.17,93.58,11.22,6.45.13,12.75.19,18.84.19,42.77,0,75.03-3.11,75.12-7.62.1-5.15-41.79-10.17-93.58-11.22-6.45-.13-12.75-.19-18.84-.19" style="fill:#f9cebd;"/><path d="M292.1,335.47s-15.74,8.59-48.34,7.87c-32.6-.7-50.9-7.02-50.9-7.02l6.06-6.67,9.98-10.96,64.53,1.05,6.91,5.83,11.75,9.9Z" style="fill:#ffead9;"/><path d="M280.35,325.57c-8.09,4.22-20.98,9.79-34.29,10.74-17.96,1.3-39.87-4.52-47.14-6.66l9.98-10.96,64.53,1.05,6.91,5.83Z" style="fill:#280300;"/><path d="M233.43,328.65c-92.71-2.57-104.6-90.54-105.19-130.77-.02-1.05-.02-2.05-.04-3.02,0-10.23.69-16.68.69-16.68l222.32,4.51s.9,7.27.85,18.55c0,.69.01,1.4,0,2.13-.59,40.96-14.1,128.17-118.63,125.28Z" style="fill:#ffead9;"/><path d="M352.07,203.36c-4.48-4.12-7.07-9.78-8.31-13.17-1.53,6.33-6.46,20.61-19.91,22.45-13.47,1.86-20.2-12.99-22.48-19.52-1.53,6.17-6.5,19.66-20.98,21.72-15.29,2.2-23.72-14.78-26.35-21.32-1.64,6.05-7.22,20.71-22.46,21.49-.38.01-.73.02-1.09.02-14.34-.05-21.12-15.54-23.41-22.38-1.44,5.78-6.16,17.26-21.02,18.5-16.42,1.41-24.03-16.13-26.2-22.36-2.22,5.23-9,18.11-21.33,16.12-4.51-.72-7.85-3.48-10.29-7.04-.02-1.05-.02-2.05-.04-3.02,2.36,4.3,5.75,7.82,10.59,8.61,14.02,2.3,20.32-17.03,20.38-17.23.11-.31.41-.51.76-.52.36,0,.65.23.74.57.07.24,6.71,24.89,25.23,23.39,18.54-1.52,20.15-19.64,20.21-20.41.03-.37.35-.66.73-.7.37.03.73.23.82.59.05.26,5.77,24.36,22.83,24.4.34,0,.65,0,.99-.02,17.88-.9,21.58-22.6,21.62-22.83.05-.33.35-.59.72-.62.34-.05.69.19.8.53.07.26,8.04,25.27,25.53,22.76,17.57-2.51,20.25-23.25,20.27-23.47.05-.35.35-.64.72-.66.38-.05.73.21.82.57.05.24,5.98,23.57,21.65,21.36,15.83-2.17,19.17-23.95,19.2-24.16.07-.35.37-.62.74-.64.46-.05.71.23.8.57.04.14,2.14,8.42,7.71,14.28,0,.69.01,1.4,0,2.13Z" style="fill:#a8d3c5;"/><path d="M330.49,223.83c-.86,5.35-1.47,10.73-1.84,16.14-.13,1.88-.22,3.79.26,5.61.48,1.82,1.63,3.55,3.36,4.28,1.93.81,4.22.22,5.89-1.04,1.67-1.26,2.81-3.08,3.78-4.93,3.54-6.75,7.94-19.36,3.72-26.65-1.7-2.94-4.85-4.45-8.17-3.5-4.67,1.34-6.3,5.77-7,10.1Z" style="fill:#fff;"/><path d="M319.92,273.61c.18,2.93,2.04,5.94,4.91,6.55,1.87.4,3.85-.28,5.35-1.46,1.5-1.18,2.59-2.8,3.49-4.49,2.57-4.81,3.32-13.44-3.98-14.29-6.48-.75-10.09,8.45-9.77,13.68Z" style="fill:#fff;"/><path d="M351.21,183.28c-.02.91-.79,1.8-2.21,2.64-10.3,6.01-55.31,1.22-109.24.13-53.91-1.09-98.73,1.88-108.78-4.55-1.38-.9-2.12-1.82-2.1-2.73.15-7.52,50.04-12.62,111.43-11.37,61.41,1.25,111.05,8.36,110.89,15.88Z" style="fill:#280300;"/><path d="M349.01,185.92c-2.7,1.59-1.36.85-8.4,2.06-11.7,2.04-35.18,5.67-55.38,6.38-2.15.08-4.31.14-6.5.21h-.04c-12.11.31-20.94-1.82-34.63-2.08-2.97-.06-10.17,2-13.06,1.9-20.59-.58-39.58-1.86-55.47-3.57-11.47-1.24-21.3-4.83-28.95-6.44-7.45-1.55-12.86-1.11-15.6-2.87,1.61-.95,4.04-1.82,7.22-2.64.76-.21,1.57-.39,2.43-.58,18.3-4.11,56.04-6.38,99.56-5.49,42.61.85,79.51,4.52,98.1,9.22,1.71.41,3.26.85,4.64,1.3,2.64.83,4.68,1.69,6.07,2.6Z" style="fill:#a03e30;"/><path d="M172.09,187.58c1.26.93,2.33,2.08,3.43,3.23-22.65-2.43-38.96-5.75-44.53-9.32,1.6-.94,4.03-1.81,7.2-2.64,1.29,1.69,2.92,3.04,5.25,3.96,4.37,1.71,9.28,1.43,13.9,1.41,5.14-.05,10.64.28,14.75,3.36Z" style="fill:#d2684b;"/><path d="M270.75,192.09c2.61.86,5.23,1.94,7.93,2.47-12.12.31-25.23.34-38.92.06-2.96-.06-5.88-.14-8.77-.24,2.01-.75,4.04-1.56,6.07-2.23,10.82-3.61,22.83-3.63,33.68-.07Z" style="fill:#d2684b;"/><path d="M349.01,185.92c-7.2,4.2-31.42,7.32-63.78,8.45,2.74-.75,5.28-2.22,7.97-3.22,13.97-5.23,30.78,2.6,44.12-4.12,2.02-1.03,3.84-2.33,5.63-3.7,2.65.82,4.69,1.7,6.07,2.59Z" style="fill:#d2684b;"/><path d="M136.84,216.34c-2.79-7.83-12.72-11.47-20.13-13.99-11.96-4.06-25.75.06-33.82,9.67-7.98,9.26-9.22,23.37-4.02,34.23,7.67,15.76,25.3,21.9,41.74,25.19,8.79,1.77,17.97,2.94,27.28,5.03,7.05,1.48,14.73,4.27,20.13,9.58,1.86,1.83,3.49,3.94,4.51,6.34l-2.99,2.58c-7.78-4.37-15.37-6.17-23.97-8.27-17.86-4.08-37.96-5.17-54.45-14.73-19.11-10.41-29.14-30.92-22.13-52.07,4.87-14.7,19.5-25.26,34.9-25.76,7.49-.26,14.8,2.08,21.34,5.49,5.43,2.78,11.03,6.36,14.02,11.96.6,1.17,1.07,2.42,1.4,3.7l-3.81,1.05Z" style="fill:#ffead9;"/><path d="M140.73,126.33l-1.8.89.93,1.77c3.61,6.89-2.23,14.93-9.9,13.62l-1.98-.34-.29,1.96c-1.12,7.7-10.58,10.78-16.02,5.2l-1.39-1.43-1.39,1.43c-5.43,5.57-14.9,2.5-16.02-5.2l-.29-1.96-1.98.34c-7.67,1.31-13.51-6.73-9.9-13.62l.93-1.77-1.8-.89c-6.97-3.45-6.97-13.39,0-16.83l1.8-.89-.93-1.77c-3.61-6.89,2.23-14.93,9.9-13.62l1.98.34.29-1.96c1.12-7.7,10.58-10.78,16.02-5.2l1.39,1.43,1.39-1.43c5.43-5.57,14.9-2.5,16.02,5.2l.29,1.96,1.98-.34c7.67-1.31,13.51,6.73,9.9,13.62l-.93,1.77,1.8.89c6.97,3.45,6.97,13.39,0,16.83Z" style="fill:#ffead9;"/><path d="M123.72,116.94c0,6.58-5.33,11.91-11.91,11.91s-11.91-5.33-11.91-11.91,5.33-11.91,11.91-11.91,11.91,5.33,11.91,11.91Z" style="fill:#fb983c;"/><path d="M412.58,301.94l-1.8.89.93,1.77c3.61,6.89-2.23,14.93-9.9,13.62l-1.98-.34-.29,1.96c-1.12,7.7-10.58,10.78-16.02,5.2l-1.39-1.43-1.39,1.43c-5.43,5.57-14.9,2.5-16.02-5.2l-.29-1.96-1.98.34c-7.67,1.31-13.51-6.73-9.9-13.62l.93-1.77-1.8-.89c-6.97-3.45-6.97-13.39,0-16.83l1.8-.89-.93-1.77c-3.61-6.89,2.23-14.93,9.9-13.62l1.98.34.29-1.96c1.12-7.7,10.58-10.78,16.02-5.2l1.39,1.43,1.39-1.43c5.43-5.57,14.9-2.5,16.02,5.2l.29,1.96,1.98-.34c7.67-1.31,13.51,6.73,9.9,13.62l-.93,1.77,1.8.89c6.97,3.45,6.97,13.39,0,16.83Z" style="fill:#ffead9;"/><path d="M395.58,292.56c0,6.58-5.33,11.91-11.91,11.91s-11.91-5.33-11.91-11.91,5.33-11.91,11.91-11.91,11.91,5.33,11.91,11.91Z" style="fill:#fb983c;"/><path d="M51.94,184.65c-8.03-7.39-10.92-13.16-6.82-18.77.19-.28.4-.53.63-.79,5-5.42,15.86-3.53,24.27,4.22,8.4,7.74,11.18,18.41,6.19,23.83-.24.26-.47.49-.74.7-5.25,4.55-15.52-1.8-23.53-9.18Z" style="fill:#280300;"/><path d="M51.94,188.94c-6.22-5.73-9.36-13.05-8.54-18.68.05-.47.15-.91.27-1.34.31-1.11.79-2.14,1.45-3.05,5.27-4.56,15.53-2.5,23.56,4.89,7.75,7.13,10.71,16.78,7.17,22.48-.12.2-.24.39-.37.58l-.2.17c-5.31,4.33-15.42,2.23-23.33-5.06Z" style="fill:#a03e30;"/><path d="M43.4,170.27c.05-.47.15-.91.27-1.34,1.82,3.71,4.59,6.96,8.06,9.29,2.79,1.88,5.99,3.17,9.09,4.41,1.81.74,3.69,1.5,5.48,2.37,3.36,1.65,7.39,4.3,9.56,8.26-.12.2-.24.39-.37.58l-.2.17c-2.16-4.17-6.6-6.86-9.37-8.23-1.75-.85-3.62-1.6-5.41-2.33-3.15-1.26-6.4-2.57-9.26-4.52-3.27-2.21-5.96-5.21-7.83-8.66Z" style="fill:#280300;"/><path d="M385.04,179.42c6.08-9.06,11.29-13.46,17.46-10.26.3.14.59.31.88.51,6.12,4.11,5.91,15.14-.47,24.63-6.36,9.48-16.48,13.86-22.61,9.75-.29-.19-.55-.39-.8-.62-5.3-4.5-.54-14.96,5.54-24.01Z" style="fill:#280300;"/><path d="M380.75,179.42c4.71-7.02,11.47-11.24,17.15-11.29.47-.02.92,0,1.37.06,1.15.14,2.24.45,3.23.97,5.31,4.51,4.84,14.97-1.24,24.03-5.87,8.74-14.95,13.14-21.13,10.51-.22-.08-.42-.18-.63-.28l-.2-.17c-5.09-4.59-4.55-14.9,1.44-23.83Z" style="fill:#a03e30;"/><path d="M397.9,168.13c.47-.02.92,0,1.37.06-3.39,2.36-6.17,5.6-7.96,9.38-1.44,3.05-2.22,6.41-2.98,9.66-.46,1.9-.92,3.88-1.5,5.77-1.12,3.58-3.12,7.96-6.7,10.7-.22-.08-.42-.18-.63-.28l-.2-.17c3.79-2.77,5.77-7.57,6.7-10.52.58-1.86,1.03-3.82,1.48-5.71.77-3.31,1.57-6.72,3.05-9.84,1.68-3.57,4.24-6.69,7.36-9.06Z" style="fill:#280300;"/></svg>